<?xml version="1.0" encoding="UTF-8" standalone="no"?>
<!DOCTYPE svg PUBLIC "-//W3C//DTD SVG 1.1//EN" "http://www.w3.org/Graphics/SVG/1.1/DTD/svg11.dtd">
<svg width="100%" height="100%" viewBox="0 0 2084 2084" version="1.1" xmlns="http://www.w3.org/2000/svg" xmlns:xlink="http://www.w3.org/1999/xlink" xml:space="preserve" xmlns:serif="http://www.serif.com/" style="fill-rule:evenodd;clip-rule:evenodd;stroke-linecap:round;stroke-linejoin:round;">
    <g transform="matrix(4.16667,0,0,4.16667,0,0)">
        <g id="Paper" transform="matrix(2,0,0,2,-750,-428)">
            <path d="M479.62,270L467.06,270C467.057,270 467.053,270 467.05,270C460.176,270 454.52,275.656 454.52,282.53C454.52,282.533 454.52,282.537 454.52,282.54L454.52,389.18" style="fill:none;fill-rule:nonzero;stroke:white;stroke-width:7px;"/>
            <path d="M536.06,295.1L536.06,288.82" style="fill:none;fill-rule:nonzero;stroke:white;stroke-width:7px;"/>
            <path d="M479.62,270L548.62,270C555.499,270 561.16,275.661 561.16,282.54L561.16,289.25L536.06,289.25" style="fill:none;fill-rule:nonzero;stroke:white;stroke-width:7px;"/>
            <path d="M548.62,270C548.617,270 548.613,270 548.61,270C541.729,270 536.065,275.659 536.06,282.54L536.06,288.82" style="fill:none;fill-rule:nonzero;stroke:white;stroke-width:7px;"/>
            <path d="M523.52,408C516.65,407.995 511,402.34 511,395.47C511,395.467 511,395.463 511,395.46L511,389.18L442,389.18C440.28,389.185 438.865,390.6 438.86,392.32L438.86,395.46C438.86,395.463 438.86,395.467 438.86,395.47C438.86,402.34 444.51,407.995 451.38,408L523.52,408C523.523,408 523.527,408 523.53,408C530.404,408 536.06,402.344 536.06,395.47C536.06,395.467 536.06,395.463 536.06,395.46L536.06,295.1" style="fill:none;fill-rule:nonzero;stroke:white;stroke-width:7px;"/>
        </g>
    </g>
</svg>
